<mxfile host="app.diagrams.net" modified="2023-03-13T22:50:13.153Z" agent="5.0 (X11; Linux x86_64) AppleWebKit/537.36 (KHTML, like Gecko) Chrome/111.0.0.0 Safari/537.36" etag="-a7IheOhPuxOIJaKj-kw" version="21.0.6" type="github">
  <diagram name="Page-1" id="wEtN2_bNFb09H83e33h0">
    <mxGraphModel dx="2000" dy="1655" grid="0" gridSize="10" guides="1" tooltips="1" connect="1" arrows="1" fold="1" page="0" pageScale="1" pageWidth="850" pageHeight="1100" math="0" shadow="0">
      <root>
        <mxCell id="0" />
        <mxCell id="1" parent="0" />
        <mxCell id="hMvrOvtn1rRQFC8NRibS-31" style="edgeStyle=none;curved=1;rounded=0;orthogonalLoop=1;jettySize=auto;html=1;entryX=0.5;entryY=0.342;entryDx=0;entryDy=0;entryPerimeter=0;fontSize=12;startSize=8;endSize=8;" parent="1" source="hMvrOvtn1rRQFC8NRibS-17" target="hMvrOvtn1rRQFC8NRibS-16" edge="1">
          <mxGeometry relative="1" as="geometry" />
        </mxCell>
        <mxCell id="hMvrOvtn1rRQFC8NRibS-10" value="Account" style="swimlane;childLayout=stackLayout;horizontal=1;startSize=50;horizontalStack=0;rounded=1;fontSize=14;fontStyle=0;strokeWidth=2;resizeParent=0;resizeLast=1;shadow=0;dashed=0;align=center;arcSize=4;whiteSpace=wrap;html=1;" parent="1" vertex="1">
          <mxGeometry x="1058" y="-648" width="160" height="120" as="geometry" />
        </mxCell>
        <mxCell id="hMvrOvtn1rRQFC8NRibS-11" value="Account_number&lt;br&gt;Account_type&lt;br&gt;Balance&lt;br&gt;Customer_id" style="align=left;strokeColor=none;fillColor=none;spacingLeft=4;fontSize=12;verticalAlign=top;resizable=0;rotatable=0;part=1;html=1;" parent="hMvrOvtn1rRQFC8NRibS-10" vertex="1">
          <mxGeometry y="50" width="160" height="70" as="geometry" />
        </mxCell>
        <mxCell id="hMvrOvtn1rRQFC8NRibS-23" style="edgeStyle=none;curved=1;rounded=0;orthogonalLoop=1;jettySize=auto;html=1;entryX=0.631;entryY=-0.029;entryDx=0;entryDy=0;entryPerimeter=0;fontSize=12;startSize=8;endSize=8;" parent="hMvrOvtn1rRQFC8NRibS-10" source="hMvrOvtn1rRQFC8NRibS-11" target="hMvrOvtn1rRQFC8NRibS-11" edge="1">
          <mxGeometry relative="1" as="geometry" />
        </mxCell>
        <mxCell id="hMvrOvtn1rRQFC8NRibS-12" value="Loans" style="swimlane;childLayout=stackLayout;horizontal=1;startSize=50;horizontalStack=0;rounded=1;fontSize=14;fontStyle=0;strokeWidth=2;resizeParent=0;resizeLast=1;shadow=0;dashed=0;align=center;arcSize=4;whiteSpace=wrap;html=1;" parent="1" vertex="1">
          <mxGeometry x="-80" y="-379" width="160" height="120" as="geometry" />
        </mxCell>
        <mxCell id="hMvrOvtn1rRQFC8NRibS-13" value="Loan_id&lt;br&gt;Loan_type&lt;br&gt;Amount&lt;br&gt;customer_id" style="align=left;strokeColor=none;fillColor=none;spacingLeft=4;fontSize=12;verticalAlign=top;resizable=0;rotatable=0;part=1;html=1;" parent="hMvrOvtn1rRQFC8NRibS-12" vertex="1">
          <mxGeometry y="50" width="160" height="70" as="geometry" />
        </mxCell>
        <mxCell id="hMvrOvtn1rRQFC8NRibS-14" value="Deposit" style="swimlane;childLayout=stackLayout;horizontal=1;startSize=50;horizontalStack=0;rounded=1;fontSize=14;fontStyle=0;strokeWidth=2;resizeParent=0;resizeLast=1;shadow=0;dashed=0;align=center;arcSize=4;whiteSpace=wrap;html=1;" parent="1" vertex="1">
          <mxGeometry x="1071" y="-107" width="160" height="131" as="geometry" />
        </mxCell>
        <mxCell id="hMvrOvtn1rRQFC8NRibS-15" value="Id&lt;br&gt;customer_id&lt;br&gt;amount&lt;br&gt;time&lt;br&gt;account_id&lt;br&gt;" style="align=left;strokeColor=none;fillColor=none;spacingLeft=4;fontSize=12;verticalAlign=top;resizable=0;rotatable=0;part=1;html=1;" parent="hMvrOvtn1rRQFC8NRibS-14" vertex="1">
          <mxGeometry y="50" width="160" height="81" as="geometry" />
        </mxCell>
        <mxCell id="hMvrOvtn1rRQFC8NRibS-16" value="Customer" style="swimlane;childLayout=stackLayout;horizontal=1;startSize=50;horizontalStack=0;rounded=1;fontSize=14;fontStyle=0;strokeWidth=2;resizeParent=0;resizeLast=1;shadow=0;dashed=0;align=center;arcSize=4;whiteSpace=wrap;html=1;" parent="1" vertex="1">
          <mxGeometry x="549" y="-656" width="160" height="132" as="geometry" />
        </mxCell>
        <mxCell id="hMvrOvtn1rRQFC8NRibS-17" value="Customer_id&lt;br&gt;Name&lt;br&gt;Phone&lt;br&gt;Address&lt;br&gt;code" style="align=left;strokeColor=none;fillColor=none;spacingLeft=4;fontSize=12;verticalAlign=top;resizable=0;rotatable=0;part=1;html=1;" parent="hMvrOvtn1rRQFC8NRibS-16" vertex="1">
          <mxGeometry y="50" width="160" height="82" as="geometry" />
        </mxCell>
        <mxCell id="hMvrOvtn1rRQFC8NRibS-18" value="Bank" style="swimlane;childLayout=stackLayout;horizontal=1;startSize=50;horizontalStack=0;rounded=1;fontSize=14;fontStyle=0;strokeWidth=2;resizeParent=0;resizeLast=1;shadow=0;dashed=0;align=center;arcSize=4;whiteSpace=wrap;html=1;" parent="1" vertex="1">
          <mxGeometry x="42" y="-666" width="160" height="120" as="geometry" />
        </mxCell>
        <mxCell id="hMvrOvtn1rRQFC8NRibS-19" value="Name&lt;br&gt;Code&lt;br&gt;Address" style="align=left;strokeColor=none;fillColor=none;spacingLeft=4;fontSize=12;verticalAlign=top;resizable=0;rotatable=0;part=1;html=1;" parent="hMvrOvtn1rRQFC8NRibS-18" vertex="1">
          <mxGeometry y="50" width="160" height="70" as="geometry" />
        </mxCell>
        <mxCell id="hMvrOvtn1rRQFC8NRibS-21" value="Has" style="shape=rhombus;perimeter=rhombusPerimeter;whiteSpace=wrap;html=1;align=center;fontSize=16;" parent="1" vertex="1">
          <mxGeometry x="255" y="-648" width="120" height="60" as="geometry" />
        </mxCell>
        <mxCell id="hMvrOvtn1rRQFC8NRibS-24" value="takes" style="shape=rhombus;perimeter=rhombusPerimeter;whiteSpace=wrap;html=1;align=center;fontSize=16;rotation=0;" parent="1" vertex="1">
          <mxGeometry x="246" y="-464" width="120" height="73.02" as="geometry" />
        </mxCell>
        <mxCell id="hMvrOvtn1rRQFC8NRibS-25" value="Has" style="shape=rhombus;perimeter=rhombusPerimeter;whiteSpace=wrap;html=1;align=center;fontSize=16;rotation=0;" parent="1" vertex="1">
          <mxGeometry x="810" y="-624" width="120" height="60" as="geometry" />
        </mxCell>
        <mxCell id="hMvrOvtn1rRQFC8NRibS-27" value="Receives" style="shape=rhombus;perimeter=rhombusPerimeter;whiteSpace=wrap;html=1;align=center;fontSize=16;rotation=0;" parent="1" vertex="1">
          <mxGeometry x="1218" y="-314" width="120" height="60" as="geometry" />
        </mxCell>
        <mxCell id="hMvrOvtn1rRQFC8NRibS-29" value="" style="edgeStyle=entityRelationEdgeStyle;fontSize=12;html=1;endArrow=ERoneToMany;rounded=0;startSize=8;endSize=8;entryX=0.013;entryY=0.317;entryDx=0;entryDy=0;entryPerimeter=0;" parent="1" source="hMvrOvtn1rRQFC8NRibS-21" target="hMvrOvtn1rRQFC8NRibS-16" edge="1">
          <mxGeometry width="100" height="100" relative="1" as="geometry">
            <mxPoint x="228" y="-608" as="sourcePoint" />
            <mxPoint x="542" y="-618" as="targetPoint" />
          </mxGeometry>
        </mxCell>
        <mxCell id="hMvrOvtn1rRQFC8NRibS-30" value="" style="edgeStyle=entityRelationEdgeStyle;fontSize=12;html=1;endArrow=ERone;endFill=1;rounded=0;startSize=8;endSize=8;entryX=1;entryY=0;entryDx=0;entryDy=0;" parent="1" source="hMvrOvtn1rRQFC8NRibS-21" target="hMvrOvtn1rRQFC8NRibS-19" edge="1">
          <mxGeometry width="100" height="100" relative="1" as="geometry">
            <mxPoint x="222" y="-586" as="sourcePoint" />
            <mxPoint x="170" y="-614" as="targetPoint" />
          </mxGeometry>
        </mxCell>
        <mxCell id="hMvrOvtn1rRQFC8NRibS-38" value="" style="edgeStyle=entityRelationEdgeStyle;fontSize=12;html=1;endArrow=ERone;endFill=1;rounded=0;startSize=8;endSize=8;entryX=1;entryY=0;entryDx=0;entryDy=0;exitX=0.083;exitY=0.433;exitDx=0;exitDy=0;exitPerimeter=0;" parent="1" source="hMvrOvtn1rRQFC8NRibS-25" target="hMvrOvtn1rRQFC8NRibS-17" edge="1">
          <mxGeometry width="100" height="100" relative="1" as="geometry">
            <mxPoint x="744" y="-474" as="sourcePoint" />
            <mxPoint x="844" y="-574" as="targetPoint" />
          </mxGeometry>
        </mxCell>
        <mxCell id="hMvrOvtn1rRQFC8NRibS-43" value="" style="edgeStyle=entityRelationEdgeStyle;fontSize=12;html=1;endArrow=ERmany;rounded=0;startSize=8;endSize=8;" parent="1" source="hMvrOvtn1rRQFC8NRibS-24" target="hMvrOvtn1rRQFC8NRibS-12" edge="1">
          <mxGeometry width="100" height="100" relative="1" as="geometry">
            <mxPoint x="224" y="-410" as="sourcePoint" />
            <mxPoint x="324" y="-510" as="targetPoint" />
          </mxGeometry>
        </mxCell>
        <mxCell id="hMvrOvtn1rRQFC8NRibS-45" value="" style="edgeStyle=entityRelationEdgeStyle;fontSize=12;html=1;endArrow=ERone;endFill=1;rounded=0;startSize=8;endSize=8;exitX=1;exitY=0.5;exitDx=0;exitDy=0;" parent="1" source="hMvrOvtn1rRQFC8NRibS-24" edge="1">
          <mxGeometry width="100" height="100" relative="1" as="geometry">
            <mxPoint x="449" y="-466" as="sourcePoint" />
            <mxPoint x="549" y="-566" as="targetPoint" />
          </mxGeometry>
        </mxCell>
        <mxCell id="hMvrOvtn1rRQFC8NRibS-47" value="" style="edgeStyle=entityRelationEdgeStyle;fontSize=12;html=1;endArrow=ERmany;rounded=0;startSize=8;endSize=8;" parent="1" source="hMvrOvtn1rRQFC8NRibS-25" target="hMvrOvtn1rRQFC8NRibS-10" edge="1">
          <mxGeometry width="100" height="100" relative="1" as="geometry">
            <mxPoint x="888" y="-368" as="sourcePoint" />
            <mxPoint x="1029" y="-323" as="targetPoint" />
          </mxGeometry>
        </mxCell>
        <mxCell id="hMvrOvtn1rRQFC8NRibS-51" value="" style="edgeStyle=entityRelationEdgeStyle;fontSize=12;html=1;endArrow=ERoneToMany;rounded=0;startSize=8;endSize=8;entryX=1;entryY=0.926;entryDx=0;entryDy=0;entryPerimeter=0;" parent="1" source="hMvrOvtn1rRQFC8NRibS-27" target="hMvrOvtn1rRQFC8NRibS-15" edge="1">
          <mxGeometry width="100" height="100" relative="1" as="geometry">
            <mxPoint x="702" y="24" as="sourcePoint" />
            <mxPoint x="802" y="-76" as="targetPoint" />
          </mxGeometry>
        </mxCell>
        <mxCell id="vFzJEa4WHHVxWKJCzkg1-3" value="Withdrawal" style="swimlane;childLayout=stackLayout;horizontal=1;startSize=50;horizontalStack=0;rounded=1;fontSize=14;fontStyle=0;strokeWidth=2;resizeParent=0;resizeLast=1;shadow=0;dashed=0;align=center;arcSize=4;whiteSpace=wrap;html=1;" vertex="1" parent="1">
          <mxGeometry x="741" y="-116" width="160" height="131" as="geometry" />
        </mxCell>
        <mxCell id="vFzJEa4WHHVxWKJCzkg1-4" value="id&lt;br&gt;customer_id&lt;br&gt;amount&lt;br&gt;time&lt;br&gt;account_id" style="align=left;strokeColor=none;fillColor=none;spacingLeft=4;fontSize=12;verticalAlign=top;resizable=0;rotatable=0;part=1;html=1;" vertex="1" parent="vFzJEa4WHHVxWKJCzkg1-3">
          <mxGeometry y="50" width="160" height="81" as="geometry" />
        </mxCell>
        <mxCell id="vFzJEa4WHHVxWKJCzkg1-5" value="Transfer" style="swimlane;childLayout=stackLayout;horizontal=1;startSize=50;horizontalStack=0;rounded=1;fontSize=14;fontStyle=0;strokeWidth=2;resizeParent=0;resizeLast=1;shadow=0;dashed=0;align=center;arcSize=4;whiteSpace=wrap;html=1;" vertex="1" parent="1">
          <mxGeometry x="442" y="-124" width="160" height="131" as="geometry" />
        </mxCell>
        <mxCell id="vFzJEa4WHHVxWKJCzkg1-6" value="id&lt;br&gt;customer_id&lt;br&gt;amount&lt;br&gt;time&lt;br&gt;account_id" style="align=left;strokeColor=none;fillColor=none;spacingLeft=4;fontSize=12;verticalAlign=top;resizable=0;rotatable=0;part=1;html=1;" vertex="1" parent="vFzJEa4WHHVxWKJCzkg1-5">
          <mxGeometry y="50" width="160" height="81" as="geometry" />
        </mxCell>
        <mxCell id="vFzJEa4WHHVxWKJCzkg1-8" value="Makes" style="shape=rhombus;perimeter=rhombusPerimeter;whiteSpace=wrap;html=1;align=center;fontSize=16;rotation=0;" vertex="1" parent="1">
          <mxGeometry x="413" y="-299" width="120" height="60" as="geometry" />
        </mxCell>
        <mxCell id="vFzJEa4WHHVxWKJCzkg1-9" value="Occurs" style="shape=rhombus;perimeter=rhombusPerimeter;whiteSpace=wrap;html=1;align=center;fontSize=16;rotation=0;" vertex="1" parent="1">
          <mxGeometry x="579" y="-232" width="120" height="60" as="geometry" />
        </mxCell>
        <mxCell id="vFzJEa4WHHVxWKJCzkg1-10" value="Makes" style="shape=rhombus;perimeter=rhombusPerimeter;whiteSpace=wrap;html=1;align=center;fontSize=16;rotation=0;" vertex="1" parent="1">
          <mxGeometry x="768" y="-252" width="120" height="60" as="geometry" />
        </mxCell>
        <mxCell id="vFzJEa4WHHVxWKJCzkg1-11" value="Debited" style="shape=rhombus;perimeter=rhombusPerimeter;whiteSpace=wrap;html=1;align=center;fontSize=16;rotation=0;" vertex="1" parent="1">
          <mxGeometry x="878" y="-287" width="120" height="60" as="geometry" />
        </mxCell>
        <mxCell id="vFzJEa4WHHVxWKJCzkg1-12" value="Makes" style="shape=rhombus;perimeter=rhombusPerimeter;whiteSpace=wrap;html=1;align=center;fontSize=16;rotation=0;" vertex="1" parent="1">
          <mxGeometry x="1068" y="-268" width="120" height="60" as="geometry" />
        </mxCell>
        <mxCell id="vFzJEa4WHHVxWKJCzkg1-13" value="" style="edgeStyle=entityRelationEdgeStyle;fontSize=12;html=1;endArrow=ERone;endFill=1;rounded=0;entryX=1;entryY=0.5;entryDx=0;entryDy=0;exitX=0.5;exitY=0;exitDx=0;exitDy=0;" edge="1" parent="1" source="hMvrOvtn1rRQFC8NRibS-27" target="hMvrOvtn1rRQFC8NRibS-11">
          <mxGeometry width="100" height="100" relative="1" as="geometry">
            <mxPoint x="1288" y="-386" as="sourcePoint" />
            <mxPoint x="1388" y="-486" as="targetPoint" />
          </mxGeometry>
        </mxCell>
        <mxCell id="vFzJEa4WHHVxWKJCzkg1-14" value="" style="edgeStyle=entityRelationEdgeStyle;fontSize=12;html=1;endArrow=ERoneToMany;rounded=0;exitX=0.5;exitY=1;exitDx=0;exitDy=0;" edge="1" parent="1" source="vFzJEa4WHHVxWKJCzkg1-12" target="hMvrOvtn1rRQFC8NRibS-15">
          <mxGeometry width="100" height="100" relative="1" as="geometry">
            <mxPoint x="974" y="17" as="sourcePoint" />
            <mxPoint x="1256" y="-77" as="targetPoint" />
          </mxGeometry>
        </mxCell>
        <mxCell id="vFzJEa4WHHVxWKJCzkg1-15" value="" style="edgeStyle=entityRelationEdgeStyle;fontSize=12;html=1;endArrow=ERone;endFill=1;rounded=0;exitX=0.5;exitY=0;exitDx=0;exitDy=0;entryX=1;entryY=0.75;entryDx=0;entryDy=0;" edge="1" parent="1" source="vFzJEa4WHHVxWKJCzkg1-12" target="hMvrOvtn1rRQFC8NRibS-17">
          <mxGeometry width="100" height="100" relative="1" as="geometry">
            <mxPoint x="687" y="-409" as="sourcePoint" />
            <mxPoint x="872" y="-467" as="targetPoint" />
          </mxGeometry>
        </mxCell>
        <mxCell id="vFzJEa4WHHVxWKJCzkg1-16" value="" style="edgeStyle=entityRelationEdgeStyle;fontSize=12;html=1;endArrow=ERone;endFill=1;rounded=0;entryX=0;entryY=1;entryDx=0;entryDy=0;" edge="1" parent="1" source="vFzJEa4WHHVxWKJCzkg1-11" target="hMvrOvtn1rRQFC8NRibS-11">
          <mxGeometry width="100" height="100" relative="1" as="geometry">
            <mxPoint x="859" y="-243" as="sourcePoint" />
            <mxPoint x="959" y="-343" as="targetPoint" />
          </mxGeometry>
        </mxCell>
        <mxCell id="vFzJEa4WHHVxWKJCzkg1-17" value="" style="edgeStyle=entityRelationEdgeStyle;fontSize=12;html=1;endArrow=ERoneToMany;rounded=0;exitX=0.5;exitY=1;exitDx=0;exitDy=0;" edge="1" parent="1" source="vFzJEa4WHHVxWKJCzkg1-11" target="vFzJEa4WHHVxWKJCzkg1-4">
          <mxGeometry width="100" height="100" relative="1" as="geometry">
            <mxPoint x="957" y="-188" as="sourcePoint" />
            <mxPoint x="959" y="-343" as="targetPoint" />
          </mxGeometry>
        </mxCell>
        <mxCell id="vFzJEa4WHHVxWKJCzkg1-18" value="" style="edgeStyle=entityRelationEdgeStyle;fontSize=12;html=1;endArrow=ERone;endFill=1;rounded=0;entryX=1;entryY=1;entryDx=0;entryDy=0;exitX=0;exitY=0.5;exitDx=0;exitDy=0;" edge="1" parent="1" source="vFzJEa4WHHVxWKJCzkg1-10" target="hMvrOvtn1rRQFC8NRibS-17">
          <mxGeometry width="100" height="100" relative="1" as="geometry">
            <mxPoint x="725" y="-223" as="sourcePoint" />
            <mxPoint x="619" y="-482" as="targetPoint" />
          </mxGeometry>
        </mxCell>
        <mxCell id="vFzJEa4WHHVxWKJCzkg1-19" value="" style="edgeStyle=entityRelationEdgeStyle;fontSize=12;html=1;endArrow=ERoneToMany;exitX=0.45;exitY=1;exitDx=0;exitDy=0;exitPerimeter=0;curved=1;entryX=0;entryY=0;entryDx=0;entryDy=0;" edge="1" parent="1" source="vFzJEa4WHHVxWKJCzkg1-10" target="vFzJEa4WHHVxWKJCzkg1-3">
          <mxGeometry width="100" height="100" relative="1" as="geometry">
            <mxPoint x="697" y="-201" as="sourcePoint" />
            <mxPoint x="741" y="-113" as="targetPoint" />
          </mxGeometry>
        </mxCell>
        <mxCell id="vFzJEa4WHHVxWKJCzkg1-20" value="" style="edgeStyle=entityRelationEdgeStyle;fontSize=12;html=1;endArrow=ERoneToMany;rounded=0;" edge="1" parent="1" source="vFzJEa4WHHVxWKJCzkg1-9" target="hMvrOvtn1rRQFC8NRibS-11">
          <mxGeometry width="100" height="100" relative="1" as="geometry">
            <mxPoint x="627" y="-250" as="sourcePoint" />
            <mxPoint x="727" y="-350" as="targetPoint" />
          </mxGeometry>
        </mxCell>
        <mxCell id="vFzJEa4WHHVxWKJCzkg1-21" value="" style="edgeStyle=entityRelationEdgeStyle;fontSize=12;html=1;endArrow=ERoneToMany;rounded=0;exitX=0;exitY=0.5;exitDx=0;exitDy=0;entryX=0.75;entryY=0;entryDx=0;entryDy=0;" edge="1" parent="1" source="vFzJEa4WHHVxWKJCzkg1-9" target="vFzJEa4WHHVxWKJCzkg1-5">
          <mxGeometry width="100" height="100" relative="1" as="geometry">
            <mxPoint x="613" y="-273" as="sourcePoint" />
            <mxPoint x="713" y="-373" as="targetPoint" />
          </mxGeometry>
        </mxCell>
        <mxCell id="vFzJEa4WHHVxWKJCzkg1-22" value="" style="edgeStyle=entityRelationEdgeStyle;fontSize=12;html=1;endArrow=ERoneToMany;exitX=0.5;exitY=1;exitDx=0;exitDy=0;curved=1;" edge="1" parent="1" source="vFzJEa4WHHVxWKJCzkg1-8">
          <mxGeometry width="100" height="100" relative="1" as="geometry">
            <mxPoint x="402" y="-267" as="sourcePoint" />
            <mxPoint x="441" y="-120" as="targetPoint" />
          </mxGeometry>
        </mxCell>
        <mxCell id="vFzJEa4WHHVxWKJCzkg1-23" value="" style="edgeStyle=entityRelationEdgeStyle;fontSize=12;html=1;endArrow=ERoneToMany;rounded=0;entryX=0;entryY=0.75;entryDx=0;entryDy=0;exitX=0.5;exitY=0;exitDx=0;exitDy=0;" edge="1" parent="1" source="vFzJEa4WHHVxWKJCzkg1-8" target="hMvrOvtn1rRQFC8NRibS-17">
          <mxGeometry width="100" height="100" relative="1" as="geometry">
            <mxPoint x="480" y="-302" as="sourcePoint" />
            <mxPoint x="560" y="-516" as="targetPoint" />
          </mxGeometry>
        </mxCell>
      </root>
    </mxGraphModel>
  </diagram>
</mxfile>
